<?xml version="1.0" encoding="utf-8"?>
<!-- Generator: Adobe Illustrator 23.0.6, SVG Export Plug-In . SVG Version: 6.00 Build 0)  -->
<svg version="1.1" id="图层_1" xmlns="http://www.w3.org/2000/svg" xmlns:xlink="http://www.w3.org/1999/xlink" x="0px" y="0px"
	 viewBox="0 0 474 126" style="enable-background:new 0 0 474 126;" xml:space="preserve">
<style type="text/css">
	.st0{fill:#777A8C;}
</style>
<path class="st0" d="M162.4,63h-23.2V14.2h22.7c10,0,16.1,5,16.1,12.6v0.1c0,5.5-2.9,8.6-6.4,10.5c5.6,2.2,9.1,5.4,9.1,12v0.1
	C180.7,58.6,173.5,63,162.4,63z M167.3,28.6c0-3.2-2.5-5-7-5h-10.6v10.3h9.9c4.7,0,7.7-1.5,7.7-5.2V28.6z M170,48.2
	c0-3.3-2.4-5.3-7.9-5.3h-12.4v10.7h12.8C167.2,53.6,170.1,51.9,170,48.2L170,48.2L170,48.2z M192.5,63V14.2h10.7V63H192.5z
	 M251.8,63l-23.6-31v31h-10.6V14.2h9.9l22.9,30.1V14.2H261V63H251.8z M309.2,63l-4.5-10.9h-20.6L279.6,63h-10.9l20.9-49.2h9.9
	L320.4,63H309.2z M294.4,26.8l-6.5,15.8h13L294.4,26.8z M362.5,63l-23.6-31v31h-10.6V14.2h9.9l22.9,30.1V14.2h10.6V63H362.5z
	 M407,63.9c-14.4,0-25-11.1-25-25.1v-0.1c0-13.9,10.5-25.2,25.5-25.2c9.2,0,14.7,3.1,19.2,7.5l-6.8,7.9c-3.8-3.4-7.6-5.5-12.5-5.5
	c-8.2,0-14.2,6.8-14.2,15.2v0.1c0,8.4,5.8,15.3,14.2,15.3c5.6,0,9-2.2,12.8-5.7l6.8,6.9C422,60.5,416.5,63.9,407,63.9z M435.7,63
	V14.2h36.8v9.6h-26.1v9.9h23v9.6h-23v10.3h26.5v9.6h-37.2V63z"/>
<path class="st0" d="M143.2,87.2c0-2.3,2-4,5.5-4c3.1,0,6.1,1.2,9.1,3.5l3.2-4.5c-3.4-2.7-7.3-4.2-12.2-4.2
	c-6.7,0-11.5,3.9-11.5,9.8c0,6.2,4,8.4,11.2,10.1c6.2,1.4,7.6,2.7,7.6,5.2c0,2.6-2.3,4.3-6,4.3c-4.2,0-7.4-1.6-10.6-4.4l-3.6,4.2
	c4,3.6,8.9,5.4,14,5.4c7.1,0,12-3.7,12-10.1c0-5.6-3.7-8.2-10.8-9.9C144.8,91,143.2,89.8,143.2,87.2z"/>
<path class="st0" d="M195.1,87.9V112h5.9V78.4h-6.3l-10.2,15.9l-10.2-15.9H168V112h5.8V88l10.5,15.7h0.2L195.1,87.9z"/>
<path class="st0" d="M226.1,78.2h-5.5L205.8,112h6l3.5-8.1h15.9l3.4,8.1h6.2L226.1,78.2z M229.1,98.7h-11.6l5.8-13.4L229.1,98.7z"/>
<path class="st0" d="M274.2,112l-9.1-12.7c4.7-1.3,8-4.7,8-10.2c0-6.6-4.8-10.7-12.5-10.7h-15V112h5.9v-11.7h7.4l8.3,11.7H274.2z
	 M267.1,89.4c0,3.5-2.7,5.7-6.9,5.7h-8.6V83.8h8.6C264.5,83.8,267.1,85.7,267.1,89.4z"/>
<path class="st0" d="M293.5,83.9h10.7v-5.5h-27.3v5.5h10.7V112h6V83.9z"/>
<path class="st0" d="M352.1,106.6l-3.8-3.8c-2.9,2.7-5.5,4.4-9.6,4.4c-6.4,0-11.1-5.4-11.1-12c0-6.6,4.7-11.9,11.1-11.9
	c3.8,0,6.7,1.7,9.4,4.2l3.8-4.4c-3.2-3.1-7-5.2-13.2-5.2c-10.2,0-17.3,7.8-17.3,17.4c0,9.7,7.3,17.3,17.1,17.3
	C344.7,112.6,348.6,110.3,352.1,106.6z"/>
<path class="st0" d="M379.3,97.8V112h5.9V78.4h-5.9v14h-16v-14h-5.9V112h5.9V97.8H379.3z"/>
<path class="st0" d="M410.2,78.2h-5.5L390,112h6l3.5-8.1h15.9l3.4,8.1h6.2L410.2,78.2z M413.2,98.7h-11.6l5.8-13.4L413.2,98.7z"/>
<path class="st0" d="M430.1,78.4V112h5.9V78.4H430.1z"/>
<path class="st0" d="M467.5,101.6l-18-23.2h-5.5V112h5.8V88.1l18.5,23.9h4.9V78.4h-5.8V101.6z"/>
<path class="st0" d="M54.5,14.2L33.4,26.4l-12.5-7.1L54.4,0l33.5,19.3l-12.3,7.1L54.5,14.2z"/>
<path class="st0" d="M75.7,36.6L88,43.7v14.2L66.9,70.1v24.4l-12.3,7.1l-12.3-7.1V70.1L21.2,57.9V43.7l12.3-7.1l21.1,12.2L75.7,36.6
	z"/>
<path class="st0" d="M88,68.1v14.2l-12.3,7.1V75.2L88,68.1z"/>
<path class="st0" d="M75.7,99.6l21.1-12.2h0.1V63l12.3-7.1v38.6l-33.5,19.3V99.6z"/>
<path class="st0" d="M96.8,38.6l-12.3-7.1l12.3-7.1l12.3,7.1v14.2l-12.3,7.1V38.6z"/>
<path class="st0" d="M42.2,118.9v-14.2l12.3,7.1l12.3-7.1v14.2L54.5,126L42.2,118.9z"/>
<path class="st0" d="M33.4,89.4l-12.3-7.1V68.1l12.3,7.1V89.4z"/>
<path class="st0" d="M54.5,38.6l-12.3-7.1l12.3-7.1l12.3,7.1L54.5,38.6z"/>
<path class="st0" d="M24.6,31.5l-12.3,7.1v14.2L0,45.7V31.5l12.3-7.1L24.6,31.5z"/>
<path class="st0" d="M0,55.9L12.3,63h0.1v24.4l21.1,12.2v14.2L0,94.5V55.9z"/>
</svg>
